<?xml version="1.0" standalone="no"?>
<!DOCTYPE svg PUBLIC "-//W3C//DTD SVG 20010904//EN"
 "http://www.w3.org/TR/2001/REC-SVG-20010904/DTD/svg10.dtd">
<svg version="1.0" xmlns="http://www.w3.org/2000/svg"
 width="1261.000000pt" height="1280.000000pt" viewBox="0 0 1261.000000 1280.000000"
 preserveAspectRatio="xMidYMid meet">

<g transform="translate(0.000000,1280.000000) scale(0.100000,-0.100000)"
fill="#000000" stroke="none">
<path d="M6167 11374 c-1 -1 -47 -6 -102 -9 -109 -8 -160 -13 -160 -15 0 -1
-22 -4 -50 -6 -56 -5 -120 -12 -120 -14 0 -1 -53 -8 -106 -14 -14 -2 -30 -5
-35 -8 -5 -2 -24 -4 -41 -4 -18 1 -33 -3 -33 -8 0 -4 -9 -6 -20 -3 -11 3 -20
2 -20 -1 0 -6 -30 -12 -82 -15 -10 -1 -18 -5 -18 -10 0 -4 -4 -6 -9 -3 -4 3
-23 1 -42 -4 -43 -13 -89 -23 -111 -24 -10 0 -18 -3 -18 -6 0 -3 -8 -6 -17 -7
-45 -3 -63 -8 -63 -17 0 -5 -3 -7 -6 -3 -3 3 -18 1 -33 -5 -14 -5 -35 -11 -46
-13 -11 -2 -44 -10 -72 -19 -29 -9 -55 -17 -58 -17 -2 0 -28 -9 -57 -20 -29
-11 -60 -22 -68 -24 -71 -18 -319 -117 -462 -183 -331 -155 -735 -417 -1043
-677 -86 -72 -376 -339 -399 -367 -11 -12 -65 -72 -121 -133 -183 -200 -334
-393 -492 -630 -130 -194 -262 -421 -251 -429 413 -316 1707 -1341 1711 -1355
3 -11 1 -21 -4 -23 -5 -2 -11 -17 -12 -33 -1 -17 -6 -33 -10 -36 -4 -3 -9 -21
-11 -41 -2 -19 -6 -40 -10 -47 -4 -6 -4 -11 0 -11 3 0 1 -7 -6 -15 -7 -8 -10
-25 -6 -40 4 -14 2 -25 -3 -25 -5 0 -10 -8 -11 -17 -2 -33 -8 -88 -10 -93 -8
-22 -14 -62 -14 -100 0 -25 -4 -48 -10 -52 -6 -4 -10 -56 -10 -127 1 -67 -3
-121 -8 -121 -4 0 -8 -67 -8 -150 0 -82 4 -150 8 -150 5 0 9 -52 9 -116 -1
-66 3 -118 9 -122 6 -4 11 -29 11 -57 2 -72 3 -85 11 -85 4 0 8 -24 9 -52 0
-29 6 -54 12 -56 6 -2 8 -14 5 -27 -3 -12 -1 -26 5 -29 5 -4 8 -13 4 -21 -3
-8 -1 -15 3 -15 5 0 10 -17 11 -37 1 -21 6 -39 11 -41 6 -2 8 -11 5 -21 -3
-10 0 -22 6 -25 5 -4 8 -13 4 -21 -3 -8 -1 -15 3 -15 5 0 10 -12 11 -26 0 -15
5 -29 10 -33 4 -3 9 -17 11 -31 1 -14 7 -27 12 -28 6 -2 8 -8 5 -13 -18 -28
173 -430 289 -609 105 -161 260 -358 279 -352 4 1 6 -1 3 -6 -8 -13 209 -222
324 -314 52 -41 131 -100 175 -130 102 -71 325 -199 336 -193 4 3 9 1 11 -4 1
-5 10 -11 18 -13 8 -2 21 -9 28 -16 8 -7 18 -10 23 -7 5 4 9 2 9 -3 0 -9 39
-28 70 -34 8 -2 21 -9 28 -16 8 -7 19 -11 26 -9 6 2 17 -3 25 -10 7 -8 18 -12
25 -10 6 2 17 -3 25 -10 7 -8 20 -12 27 -9 8 3 14 1 14 -4 0 -12 67 -33 81
-24 8 5 9 3 4 -6 -6 -10 -4 -12 8 -7 9 3 17 1 19 -4 2 -5 14 -11 28 -13 14 -2
38 -8 53 -15 16 -6 32 -9 37 -6 5 3 10 0 12 -6 2 -6 17 -12 34 -13 17 -2 35
-5 40 -8 19 -11 155 -40 161 -35 3 4 14 2 25 -4 10 -5 42 -12 71 -15 29 -3 79
-8 112 -12 96 -13 602 -7 618 6 8 7 30 9 53 6 29 -4 35 -3 24 5 -11 8 -7 10
17 5 18 -4 40 -3 50 1 10 5 29 7 42 6 13 -2 21 2 17 7 -4 6 2 8 14 5 11 -3 28
-2 37 2 10 5 29 7 42 6 13 -2 21 2 17 7 -3 5 5 7 19 4 14 -2 25 0 25 6 0 6 10
8 22 4 13 -3 19 -1 15 5 -4 6 3 8 18 5 14 -2 25 0 25 6 0 6 10 8 22 4 13 -3
19 -1 15 5 -5 7 0 9 12 6 10 -3 22 0 25 6 4 5 14 7 23 4 10 -4 14 -2 10 4 -5
7 0 9 13 6 11 -3 20 0 20 6 0 6 7 8 17 4 10 -4 14 -2 10 4 -5 7 0 9 13 6 11
-3 20 -1 20 3 0 5 12 10 27 11 15 0 29 6 31 12 2 6 7 9 12 6 21 -13 346 136
500 230 47 28 96 58 110 66 36 21 179 128 222 167 22 20 42 31 49 26 7 -4 9
-3 6 3 -7 10 126 147 134 138 3 -3 16 7 30 23 l24 27 -27 -24 c-41 -36 -34
-18 17 45 234 287 533 909 477 992 -5 7 -40 17 -78 23 -88 12 -749 26 -1184
25 l-335 0 250 -6 c138 -3 210 -7 160 -9 -82 -3 -86 -4 -45 -12 70 -12 141
-28 183 -39 20 -5 52 -14 70 -19 179 -48 356 -174 421 -300 61 -116 67 -297
17 -436 -13 -36 -95 -199 -108 -215 -6 -8 -30 -40 -53 -70 -38 -53 -198 -220
-210 -220 -3 0 -21 -14 -40 -30 -107 -93 -325 -219 -520 -302 -224 -94 -475
-160 -760 -199 -116 -16 -531 -16 -650 0 -281 38 -527 103 -765 201 -161 66
-541 278 -575 320 -3 3 -21 17 -40 30 -19 13 -37 27 -40 30 -3 3 -15 13 -27
21 -69 47 -288 256 -388 369 -90 103 -265 346 -265 370 0 5 -3 10 -7 10 -5 0
-13 10 -19 23 -22 45 -59 112 -64 117 -9 8 -53 103 -115 245 -72 165 -153 450
-184 645 -6 36 -16 101 -23 145 -17 112 -17 593 0 720 13 96 52 302 71 375 38
147 53 194 96 305 39 102 51 128 112 250 31 61 61 120 67 132 6 13 14 23 19
23 4 0 7 4 7 10 0 8 66 118 87 145 5 6 30 40 56 77 26 36 53 72 59 80 7 7 31
36 52 63 41 51 310 325 320 325 3 0 16 10 29 23 13 12 50 42 81 67 32 25 63
50 69 55 59 51 272 182 417 257 330 169 654 267 1013 303 364 37 698 -1 1137
-131 47 -14 113 -34 147 -44 34 -10 67 -21 73 -25 6 -4 17 -2 24 4 15 13 66
-4 66 -22 0 -6 3 -7 7 -4 10 10 222 -104 351 -189 62 -41 160 -117 217 -169
57 -52 107 -95 112 -95 11 0 981 974 1120 1125 137 149 268 301 284 331 18 35
5 65 -58 128 -156 158 -527 419 -878 618 -221 125 -582 289 -715 323 -8 2 -39
13 -68 24 -29 11 -55 19 -58 19 -3 0 -17 4 -32 10 -15 5 -47 15 -72 22 -25 7
-62 19 -82 26 -21 8 -38 12 -38 10 0 -2 -30 5 -67 15 -37 9 -71 15 -75 13 -4
-3 -8 -2 -8 3 0 7 -18 11 -72 16 -10 1 -18 4 -18 7 0 4 -33 10 -82 13 -10 1
-18 5 -18 10 0 4 -4 5 -10 2 -5 -3 -27 -1 -48 5 -35 9 -63 13 -172 26 -14 1
-27 3 -30 4 -3 1 -9 2 -14 1 -5 -1 -16 1 -25 5 -18 7 -47 10 -185 19 -55 3
-104 8 -109 12 -8 5 -644 12 -650 7z m96 -2051 c-7 -2 -21 -2 -30 0 -10 3 -4
5 12 5 17 0 24 -2 18 -5z m470 0 c-7 -2 -19 -2 -25 0 -7 3 -2 5 12 5 14 0 19
-2 13 -5z m-543 -13 c-20 -13 -33 -13 -25 0 3 6 14 10 23 10 15 0 15 -2 2 -10z
m604 1 c4 -5 -3 -7 -14 -4 -23 6 -26 13 -6 13 8 0 17 -4 20 -9z m-697 -7 c-3
-3 -12 -4 -19 -1 -8 3 -5 6 6 6 11 1 17 -2 13 -5z m-96 -27 c-10 -9 -11 -8 -5
6 3 10 9 15 12 12 3 -3 0 -11 -7 -18z m44 13 c-3 -5 -11 -10 -16 -10 -6 0 -7
5 -4 10 3 6 11 10 16 10 6 0 7 -4 4 -10z m880 0 c3 -6 -1 -7 -9 -4 -18 7 -21
14 -7 14 6 0 13 -4 16 -10z m95 -20 c0 -5 -2 -10 -4 -10 -3 0 -8 5 -11 10 -3
6 -1 10 4 10 6 0 11 -4 11 -10z m-1160 -14 c0 -3 -4 -8 -10 -11 -5 -3 -10 -1
-10 4 0 6 5 11 10 11 6 0 10 -2 10 -4z m1240 -6 c0 -5 -2 -10 -4 -10 -3 0 -8
5 -11 10 -3 6 -1 10 4 10 6 0 11 -4 11 -10z m38 -3 c14 4 14 3 2 -5 -16 -12
-30 -7 -29 11 0 9 2 9 5 0 3 -7 13 -9 22 -6z m49 -29 c-3 -8 -6 -5 -6 6 -1 11
2 17 5 13 3 -3 4 -12 1 -19z m-1477 -2 c0 -3 -4 -8 -10 -11 -5 -3 -10 -1 -10
4 0 6 5 11 10 11 6 0 10 -2 10 -4z m-93 -38 c-3 -8 -6 -5 -6 6 -1 11 2 17 5
13 3 -3 4 -12 1 -19z m1813 -32 c0 -3 -4 -8 -10 -11 -5 -3 -10 -1 -10 4 0 6 5
11 10 11 6 0 10 -2 10 -4z m140 -68 c0 -13 -17 -10 -33 7 -8 8 -18 11 -22 7
-5 -4 -5 -2 -1 5 5 9 13 10 31 1 14 -6 25 -15 25 -20z m-2356 -63 c-4 -8 -11
-12 -16 -9 -6 4 -5 10 3 15 19 12 19 11 13 -6z m-41 -20 c-3 -9 -8 -14 -10
-11 -3 3 -2 9 2 15 9 16 15 13 8 -4z m-360 -220 c-3 -9 -8 -14 -10 -11 -3 3
-2 9 2 15 9 16 15 13 8 -4z m-493 -429 c0 -2 -8 -10 -17 -17 -16 -13 -17 -12
-4 4 13 16 21 21 21 13z m2393 -4883 c-7 -2 -19 -2 -25 0 -7 3 -2 5 12 5 14 0
19 -2 13 -5z"/>
<path d="M7742 7353 c581 -2 1535 -2 2120 0 585 1 109 2 -1057 2 -1166 0
-1644 -1 -1063 -2z"/>
<path d="M11110 7281 c0 -6 4 -13 10 -16 6 -3 7 1 4 9 -7 18 -14 21 -14 7z"/>
<path d="M6464 6945 c0 -143 2 -200 3 -127 2 73 2 190 0 260 -1 70 -3 10 -3
-133z"/>
<path d="M11130 7171 c0 -6 4 -13 10 -16 6 -3 7 1 4 9 -7 18 -14 21 -14 7z"/>
<path d="M11141 7124 c0 -11 3 -14 6 -6 3 7 2 16 -1 19 -3 4 -6 -2 -5 -13z"/>
<path d="M11152 7015 c0 -16 2 -22 5 -12 2 9 2 23 0 30 -3 6 -5 -1 -5 -18z"/>
<path d="M11161 6944 c0 -11 3 -14 6 -6 3 7 2 16 -1 19 -3 4 -6 -2 -5 -13z"/>
<path d="M11165 6525 c0 -209 1 -296 2 -193 2 103 2 274 0 380 -1 106 -2 22
-2 -187z"/>
<path d="M6474 6515 c0 -60 1 -84 3 -52 2 32 2 81 0 110 -2 29 -3 3 -3 -58z"/>
<path d="M6472 6375 c0 -16 2 -22 5 -12 2 9 2 23 0 30 -3 6 -5 -1 -5 -18z"/>
<path d="M6473 6305 c0 -22 2 -30 4 -17 2 12 2 30 0 40 -3 9 -5 -1 -4 -23z"/>
<path d="M6484 5885 c0 -143 2 -200 3 -127 2 73 2 190 0 260 -1 70 -3 10 -3
-133z"/>
<path d="M11154 6000 c0 -52 1 -74 3 -47 2 26 2 68 0 95 -2 26 -3 4 -3 -48z"/>
<path d="M11183 6050 c0 -25 2 -35 4 -22 2 12 2 32 0 45 -2 12 -4 2 -4 -23z"/>
<path d="M11172 5860 c0 -14 2 -19 5 -12 2 6 2 18 0 25 -3 6 -5 1 -5 -13z"/>
<path d="M11143 5760 c0 -41 2 -58 4 -37 2 20 2 54 0 75 -2 20 -4 3 -4 -38z"/>
<path d="M11133 5620 c0 -30 2 -43 4 -27 2 15 2 39 0 55 -2 15 -4 2 -4 -28z"/>
<path d="M6493 5495 c0 -38 2 -53 4 -32 2 20 2 52 0 70 -2 17 -4 1 -4 -38z"/>
<path d="M11123 5480 c0 -25 2 -35 4 -22 2 12 2 32 0 45 -2 12 -4 2 -4 -23z"/>
<path d="M11113 5395 c0 -22 2 -30 4 -17 2 12 2 30 0 40 -3 9 -5 -1 -4 -23z"/>
<path d="M6877 5403 c94 -2 252 -2 350 0 98 1 21 2 -172 2 -192 1 -273 -1
-178 -2z"/>
<path d="M8058 5393 c61 -2 163 -2 225 0 61 1 11 3 -113 3 -124 0 -174 -2
-112 -3z"/>
<path d="M8513 5383 c37 -2 96 -2 130 0 34 2 4 3 -68 3 -71 0 -99 -1 -62 -3z"/>
<path d="M8801 5376 c2 -2 56 -6 119 -8 72 -3 98 -2 70 3 -45 8 -197 12 -189
5z"/>
<path d="M9072 5290 c0 -19 2 -27 5 -17 2 9 2 25 0 35 -3 9 -5 1 -5 -18z"/>
<path d="M11102 5290 c0 -19 2 -27 5 -17 2 9 2 25 0 35 -3 9 -5 1 -5 -18z"/>
<path d="M11092 5225 c0 -16 2 -22 5 -12 2 9 2 23 0 30 -3 6 -5 -1 -5 -18z"/>
<path d="M9061 5224 c0 -11 3 -14 6 -6 3 7 2 16 -1 19 -3 4 -6 -2 -5 -13z"/>
<path d="M9037 5148 c-9 -29 -15 -54 -13 -56 2 -2 12 20 21 48 9 28 15 53 13
55 -2 3 -12 -19 -21 -47z"/>
<path d="M11082 5150 c0 -14 2 -19 5 -12 2 6 2 18 0 25 -3 6 -5 1 -5 -13z"/>
<path d="M11072 5095 c0 -16 2 -22 5 -12 2 9 2 23 0 30 -3 6 -5 -1 -5 -18z"/>
<path d="M8997 5041 c-4 -17 -3 -21 5 -13 5 5 8 16 6 23 -3 8 -7 3 -11 -10z"/>
<path d="M11056 5014 c-4 -20 -5 -38 -3 -40 3 -3 8 11 11 32 4 20 5 38 3 40
-3 3 -8 -11 -11 -32z"/>
<path d="M8976 4995 c-9 -26 -7 -32 5 -12 6 10 9 21 6 23 -2 3 -7 -2 -11 -11z"/>
<path d="M11036 4914 c-4 -20 -5 -38 -3 -40 3 -3 8 11 11 32 4 20 5 38 3 40
-3 3 -8 -11 -11 -32z"/>
<path d="M8936 4903 c-6 -14 -5 -15 5 -6 7 7 10 15 7 18 -3 3 -9 -2 -12 -12z"/>
<path d="M8916 4863 c-6 -14 -5 -15 5 -6 7 7 10 15 7 18 -3 3 -9 -2 -12 -12z"/>
<path d="M11016 4824 c-4 -14 -5 -28 -3 -31 3 -2 8 8 11 23 4 14 5 28 3 31 -3
2 -8 -8 -11 -23z"/>
<path d="M8896 4823 c-6 -14 -5 -15 5 -6 7 7 10 15 7 18 -3 3 -9 -2 -12 -12z"/>
<path d="M10991 4724 c0 -11 3 -14 6 -6 3 7 2 16 -1 19 -3 4 -6 -2 -5 -13z"/>
<path d="M8830 4700 c-6 -11 -8 -20 -6 -20 3 0 10 9 16 20 6 11 8 20 6 20 -3
0 -10 -9 -16 -20z"/>
<path d="M10976 4674 c-4 -14 -5 -28 -3 -31 3 -2 8 8 11 23 4 14 5 28 3 31 -3
2 -8 -8 -11 -23z"/>
<path d="M8800 4650 c-6 -11 -8 -20 -6 -20 3 0 10 9 16 20 6 11 8 20 6 20 -3
0 -10 -9 -16 -20z"/>
<path d="M8760 4580 c-6 -11 -8 -20 -6 -20 3 0 10 9 16 20 6 11 8 20 6 20 -3
0 -10 -9 -16 -20z"/>
<path d="M10941 4563 c-1 -6 -4 -20 -7 -30 -5 -17 -5 -17 6 0 6 10 9 23 6 30
-3 9 -5 9 -5 0z"/>
<path d="M8629 4383 c-13 -16 -12 -17 4 -4 16 13 21 21 13 21 -2 0 -10 -8 -17
-17z"/>
<path d="M10866 4355 c-9 -26 -7 -32 5 -12 6 10 9 21 6 23 -2 3 -7 -2 -11 -11z"/>
<path d="M8599 4343 c-13 -16 -12 -17 4 -4 16 13 21 21 13 21 -2 0 -10 -8 -17
-17z"/>
<path d="M10815 4229 c-4 -6 -5 -12 -2 -15 2 -3 7 2 10 11 7 17 1 20 -8 4z"/>
<path d="M8460 4185 c-24 -25 -42 -45 -39 -45 3 0 25 20 49 45 24 25 42 45 39
45 -3 0 -25 -20 -49 -45z"/>
<path d="M10796 4185 c-9 -26 -7 -32 5 -12 6 10 9 21 6 23 -2 3 -7 -2 -11 -11z"/>
<path d="M8349 4083 l-24 -28 28 24 c15 14 27 26 27 28 0 8 -8 1 -31 -24z"/>
<path d="M10717 4014 c-26 -52 -47 -98 -46 -102 0 -4 23 37 50 92 28 54 49
100 47 102 -2 2 -25 -39 -51 -92z"/>
<path d="M8289 4033 c-13 -16 -12 -17 4 -4 9 7 17 15 17 17 0 8 -8 3 -21 -13z"/>
<path d="M8225 3984 l-30 -26 33 22 c17 12 32 23 32 26 0 7 -4 5 -35 -22z"/>
<path d="M8167 3942 c-15 -16 -10 -22 81 -92 126 -96 1033 -794 1316 -1012
120 -93 220 -167 222 -165 3 3 -17 20 -43 40 -26 19 -82 61 -123 93 -41 32
-113 87 -160 123 -47 35 -134 103 -193 149 -59 46 -150 116 -201 155 -155 119
-354 272 -471 362 -60 47 -168 130 -240 185 -201 154 -192 145 -176 164 18 22
8 20 -12 -2z"/>
<path d="M10655 3889 c-4 -6 -5 -12 -2 -15 2 -3 7 2 10 11 7 17 1 20 -8 4z"/>
<path d="M10635 3849 c-4 -6 -5 -12 -2 -15 2 -3 7 2 10 11 7 17 1 20 -8 4z"/>
<path d="M10615 3809 c-4 -6 -5 -12 -2 -15 2 -3 7 2 10 11 7 17 1 20 -8 4z"/>
<path d="M10585 3750 c-9 -16 -13 -30 -11 -30 3 0 12 14 21 30 9 17 13 30 11
30 -3 0 -12 -13 -21 -30z"/>
<path d="M10494 3598 c-4 -7 -14 -24 -22 -38 -14 -24 -13 -24 3 -5 20 24 37
55 31 55 -3 0 -8 -6 -12 -12z"/>
<path d="M10370 3410 c-12 -16 -19 -30 -16 -30 2 0 14 14 26 30 12 17 19 30
16 30 -2 0 -14 -13 -26 -30z"/>
<path d="M10309 3323 c-13 -16 -12 -17 4 -4 16 13 21 21 13 21 -2 0 -10 -8
-17 -17z"/>
<path d="M10279 3283 c-13 -16 -12 -17 4 -4 16 13 21 21 13 21 -2 0 -10 -8
-17 -17z"/>
<path d="M10249 3243 c-13 -16 -12 -17 4 -4 16 13 21 21 13 21 -2 0 -10 -8
-17 -17z"/>
<path d="M10189 3163 c-13 -16 -12 -17 4 -4 9 7 17 15 17 17 0 8 -8 3 -21 -13z"/>
<path d="M10159 3123 c-13 -16 -12 -17 4 -4 16 13 21 21 13 21 -2 0 -10 -8
-17 -17z"/>
<path d="M10114 3068 l-19 -23 23 19 c12 11 22 21 22 23 0 8 -8 2 -26 -19z"/>
<path d="M10079 3023 c-13 -16 -12 -17 4 -4 9 7 17 15 17 17 0 8 -8 3 -21 -13z"/>
<path d="M10034 2968 l-19 -23 23 19 c12 11 22 21 22 23 0 8 -8 2 -26 -19z"/>
<path d="M9969 2893 l-24 -28 28 24 c15 14 27 26 27 28 0 8 -8 1 -31 -24z"/>
<path d="M9914 2828 l-19 -23 23 19 c21 18 27 26 19 26 -2 0 -12 -10 -23 -22z"/>
<path d="M9830 2735 c-24 -25 -42 -45 -39 -45 3 0 25 20 49 45 24 25 42 45 39
45 -3 0 -25 -20 -49 -45z"/>
<path d="M6308 1413 c34 -2 88 -2 120 0 31 2 3 3 -63 3 -66 0 -92 -1 -57 -3z"/>
</g>
</svg>
