<?xml version="1.0" standalone="no"?>
<!DOCTYPE svg PUBLIC "-//W3C//DTD SVG 20010904//EN"
 "http://www.w3.org/TR/2001/REC-SVG-20010904/DTD/svg10.dtd">
<svg version="1.0" xmlns="http://www.w3.org/2000/svg"
 width="256.000000pt" height="256.000000pt" viewBox="0 0 256.000000 256.000000"
 preserveAspectRatio="xMidYMid meet">

<g transform="translate(0.000000,256.000000) scale(0.100000,-0.100000)"
fill="#000000" stroke="none">
<path d="M802 2321 c-8 -4 -12 -19 -10 -32 2 -18 9 -24 28 -24 28 0 39 27 20
50 -14 17 -20 18 -38 6z"/>
<path d="M1090 2098 c0 -127 46 -171 193 -182 l87 -7 0 51 0 50 -81 -2 c-74
-3 -82 -1 -100 21 -10 13 -19 32 -19 42 0 18 9 19 125 19 112 0 127 -2 145
-20 20 -20 20 -31 18 -428 l-3 -407 -400 0 -400 0 -3 391 -2 390 -39 38 c-31
31 -40 35 -49 23 -9 -11 -12 -133 -10 -468 l3 -454 493 -3 492 -3 0 220 0 221
71 0 c227 0 448 147 475 316 10 67 -43 88 -67 27 -43 -111 -88 -162 -187 -212
-58 -29 -192 -61 -258 -61 l-34 0 0 200 c0 222 -4 240 -62 282 -31 22 -43 23
-210 26 l-178 4 0 -74z"/>
<path d="M936 2134 c-32 -32 -7 -78 39 -72 25 2 31 8 33 33 6 46 -40 71 -72
39z"/>
<path d="M1794 2105 c-34 -52 22 -114 80 -87 58 26 36 112 -29 112 -26 0 -39
-6 -51 -25z"/>
<path d="M1642 1924 c-24 -17 -30 -62 -10 -82 7 -7 27 -12 45 -12 58 0 72 74
18 98 -32 15 -26 15 -53 -4z"/>
<path d="M740 1890 l0 -30 139 0 c114 0 140 3 145 15 15 40 0 45 -145 45
l-139 0 0 -30z"/>
<path d="M420 1855 c-24 -28 9 -72 45 -59 20 8 19 60 -1 68 -23 9 -30 8 -44
-9z"/>
<path d="M740 1770 l0 -30 259 0 c271 0 291 3 275 44 -5 14 -36 16 -270 16
l-264 0 0 -30z"/>
<path d="M2110 1685 c-15 -18 -6 -61 16 -69 24 -9 54 12 54 37 0 43 -44 63
-70 32z"/>
<path d="M730 1630 l0 -40 320 0 320 0 0 40 0 40 -320 0 -320 0 0 -40z"/>
<path d="M1980 1558 c-81 -68 -160 -103 -279 -122 -80 -13 -106 -31 -82 -60
19 -22 123 -21 200 3 141 44 240 140 203 197 -5 8 -18 2 -42 -18z"/>
<path d="M730 1495 l0 -35 320 0 320 0 0 35 0 35 -320 0 -320 0 0 -35z"/>
<path d="M406 1484 c-19 -18 -21 -55 -4 -72 7 -7 24 -12 38 -12 14 0 31 5 38
12 15 15 15 61 0 76 -17 17 -54 15 -72 -4z"/>
<path d="M2098 1423 c-8 -10 -22 -39 -31 -65 -37 -111 -149 -234 -263 -288
-147 -71 -293 -76 -422 -15 l-72 34 -28 -25 c-27 -24 -27 -24 -7 -40 78 -63
248 -102 367 -83 238 37 417 179 504 399 22 57 25 72 14 85 -17 20 -43 19 -62
-2z"/>
<path d="M730 1355 l0 -35 320 0 320 0 0 35 0 35 -320 0 -320 0 0 -35z"/>
<path d="M1850 1299 c-30 -11 -86 -22 -125 -25 -73 -7 -99 -22 -88 -52 10 -25
24 -32 68 -32 88 0 245 54 245 84 0 12 -32 47 -41 45 -2 -1 -29 -10 -59 -20z"/>
<path d="M503 1063 c-16 -6 -17 -45 -1 -61 22 -22 57 -14 64 13 10 41 -22 65
-63 48z"/>
<path d="M892 1058 c-21 -21 -14 -66 13 -84 23 -15 27 -15 50 0 15 10 25 26
25 40 0 43 -59 73 -88 44z"/>
<path d="M1802 765 c-30 -13 -33 -18 -30 -52 3 -36 6 -39 51 -52 67 -20 65
-46 -3 -38 -44 5 -50 4 -50 -12 0 -23 19 -31 76 -31 31 0 50 6 64 20 36 36 19
71 -44 93 -22 8 -41 18 -43 24 -6 16 24 24 52 13 20 -8 27 -6 35 10 12 22 8
25 -40 33 -21 4 -48 0 -68 -8z"/>
<path d="M670 675 l0 -95 75 0 c68 0 75 2 75 20 0 17 -7 20 -50 20 -43 0 -50
3 -50 20 0 17 7 20 40 20 33 0 40 3 40 20 0 17 -7 20 -40 20 -28 0 -40 4 -40
14 0 11 14 16 47 18 36 2 49 7 51 21 3 15 -6 17 -72 17 l-76 0 0 -95z"/>
<path d="M1010 764 c0 -3 11 -22 25 -42 14 -20 25 -41 25 -47 0 -5 -14 -28
-31 -50 l-30 -40 27 -3 c20 -3 33 4 50 25 22 28 23 28 38 8 8 -11 16 -23 16
-27 0 -9 60 -11 60 -2 0 3 -14 25 -30 50 l-31 44 31 45 31 45 -31 0 c-16 0
-30 -3 -30 -7 0 -5 -7 -17 -15 -27 -14 -19 -15 -18 -36 7 -18 23 -69 39 -69
21z"/>
<path d="M1380 675 l0 -95 60 0 c34 0 74 7 89 15 57 29 65 115 14 155 -20 16
-41 20 -94 20 l-69 0 0 -95z m124 42 c28 -21 18 -79 -15 -91 -45 -15 -59 -3
-59 54 0 48 1 50 28 50 16 0 36 -6 46 -13z"/>
</g>
</svg>
